<?xml version="1.0" encoding="utf-8"?>
<!-- Generator: Adobe Illustrator 23.0.3, SVG Export Plug-In . SVG Version: 6.00 Build 0)  -->
<svg version="1.1" xmlns="http://www.w3.org/2000/svg" xmlns:xlink="http://www.w3.org/1999/xlink" x="0px" y="0px"
	 viewBox="0 0 251.6 264.9" style="enable-background:new 0 0 251.6 264.9;" xml:space="preserve">
<style type="text/css">
	.st0{fill:#EDEDED;}
</style>
<g id="Layer_1">
	<g>
		<path d="M227.9,40.2c-8.7,0-15.7,7-15.7,15.7c0,3.9,1.4,7.5,3.8,10.2l-26.8,55l0.2-72.3c3.8-2.9,6.2-7.4,6.2-12.5
			c0-8.7-7-15.7-15.7-15.7c-8.7,0-15.7,7-15.7,15.7c0,2.8,0.8,5.5,2.1,7.8l-19.4,54.2l-11-62.5c3.2-2.9,5.2-7.1,5.2-11.7
			c0-8.7-7-15.7-15.7-15.7c-8.7,0-15.7,7-15.7,15.7c0,5,2.3,9.4,5.9,12.3l-10.9,61.9L85.4,44.1c1.3-2.3,2.1-4.9,2.1-7.8
			c0-8.7-7-15.7-15.7-15.7c-8.7,0-15.7,7-15.7,15.7c0,5.1,2.5,9.7,6.2,12.5l0.2,72.3l-26.9-55c2.4-2.7,3.8-6.3,3.8-10.2
			c0-8.7-7-15.7-15.7-15.7c-8.7,0-15.7,7-15.7,15.7c0,7.7,5.6,14.2,13,15.5l29.3,100.9l-8.8,37.1l-5.5,10.2
			c-1.8,3.3-1.7,7.3,0.2,10.5c0.5,0.9,1.2,1.7,1.9,2.4l-9.9,7.6l-0.4,0.7c-1.8,3.3-1.7,7.3,0.2,10.5c1.9,3.2,5.4,5.2,9.1,5.2h177
			c3.8,0,7.2-1.9,9.1-5.2c1.9-3.3,2-7.2,0.2-10.5l-0.4-0.7l-9.9-7.6c0.7-0.7,1.4-1.5,1.9-2.4c1.9-3.3,2-7.2,0.2-10.5l-5.5-10.3
			l-9.7-37.1l30.3-100.9c7.4-1.3,13-7.7,13-15.5C243.6,47.2,236.6,40.2,227.9,40.2z M179.9,27.7c4.8,0,8.7,3.9,8.7,8.7
			c0,4.8-3.9,8.7-8.7,8.7s-8.7-3.9-8.7-8.7C171.2,31.6,175.1,27.7,179.9,27.7z M125.4,15.5c4.8,0,8.7,3.9,8.7,8.7
			c0,4.8-3.9,8.7-8.7,8.7c-4.8,0-8.7-3.9-8.7-8.7C116.7,19.4,120.6,15.5,125.4,15.5z M71.7,27.7c4.8,0,8.7,3.9,8.7,8.7
			c0,4.8-3.9,8.7-8.7,8.7c-4.8,0-8.7-3.9-8.7-8.7C63,31.6,66.9,27.7,71.7,27.7z M15,55.9c0-4.8,3.9-8.7,8.7-8.7
			c4.8,0,8.7,3.9,8.7,8.7s-3.9,8.7-8.7,8.7C18.9,64.6,15,60.7,15,55.9z M217.8,244.7c0.5,1.4-0.1,2.5-0.3,3
			c-0.3,0.5-1.3,1.8-3.1,1.8h-177c-1.9,0-2.8-1.2-3.1-1.8c-0.3-0.5-0.8-1.6-0.3-3l12.2-9.4h159.5L217.8,244.7z M209.4,223
			c0.9,1.6,0.2,3.1-0.1,3.6c-0.3,0.5-1.3,1.8-3.1,1.8H45.4c-1.9,0-2.8-1.2-3.1-1.8c-0.3-0.5-1-1.9-0.1-3.6l4.7-8.8h157.7L209.4,223z
			 M193,172.1l9.2,35H49.3l8.3-35.1L28.2,70.9c0.6-0.2,1.2-0.4,1.7-0.6l39.7,81.4l-0.3-99.8c0.8,0.1,1.6,0.2,2.5,0.2
			c3,0,5.8-0.8,8.2-2.3l27.1,75.9l15.1-86.1c1,0.2,2.1,0.3,3.2,0.3c1.4,0,2.7-0.2,4-0.5l15.2,86.3l27.1-75.9
			c2.4,1.5,5.2,2.3,8.2,2.3c0.8,0,1.7-0.1,2.5-0.2l-0.3,99.8l39.7-81.4c0.5,0.2,1.1,0.4,1.7,0.6L193,172.1z M227.9,64.6
			c-4.8,0-8.7-3.9-8.7-8.7s3.9-8.7,8.7-8.7s8.7,3.9,8.7,8.7S232.7,64.6,227.9,64.6z"/>
	</g>
	<g>
		<path class="st0" d="M217.4,247.7c-0.3,0.5-1.3,1.8-3.1,1.8h-177c-1.9,0-2.8-1.2-3.1-1.8c-0.3-0.5-0.8-1.6-0.3-3l12.2-9.4h159.5
			l12.2,9.4C218.3,246.1,217.7,247.2,217.4,247.7z"/>
		<path class="st0" d="M209.3,226.5c-0.3,0.5-1.3,1.8-3.1,1.8H45.4c-1.9,0-2.8-1.2-3.1-1.8c-0.3-0.5-1-1.9-0.1-3.6l4.7-8.8h157.7
			l4.7,8.8C210.3,224.6,209.6,226,209.3,226.5z"/>
		<circle class="st0" cx="227.9" cy="55.9" r="8.7"/>
		<ellipse transform="matrix(0.9239 -0.3827 0.3827 0.9239 -0.2208 71.6159)" class="st0" cx="179.9" cy="36.4" rx="8.7" ry="8.7"/>
		<circle class="st0" cx="23.7" cy="55.9" r="8.7"/>
		<ellipse transform="matrix(0.7071 -0.7071 0.7071 0.7071 -4.7037 61.3701)" class="st0" cx="71.7" cy="36.4" rx="8.7" ry="8.7"/>
		
			<ellipse transform="matrix(0.1602 -0.9871 0.9871 0.1602 81.4693 144.0816)" class="st0" cx="125.4" cy="24.2" rx="8.7" ry="8.7"/>
		<path class="st0" d="M193,172.1l9.2,35H49.3l8.3-35.1L28.2,70.9c0.6-0.2,1.2-0.4,1.7-0.6l39.7,81.4l-0.3-99.8
			c0.8,0.1,1.6,0.2,2.5,0.2c3,0,5.8-0.8,8.2-2.3l27.1,75.9l15.1-86.1c1,0.2,2.1,0.3,3.2,0.3c1.4,0,2.7-0.2,4-0.5l15.2,86.3
			l27.1-75.9c2.4,1.5,5.2,2.3,8.2,2.3c0.8,0,1.7-0.1,2.5-0.2l-0.3,99.8l39.7-81.4c0.5,0.2,1.1,0.4,1.7,0.6L193,172.1z"/>
	</g>
</g>
<g id="Layer_2">
</g>
</svg>
